<svg xmlns="http://www.w3.org/2000/svg" viewBox="0 0 10 10">
  <defs>
    <linearGradient id="a" x1=".5" x2=".5" y1="1" y2="0">
      <stop offset="0"/>
      <stop offset=".5" stop-color="#fff"/>
    </linearGradient>
    <mask id="b">
      <path fill="url(#a)" d="M0 0h10v10H0z"/>
    </mask>
  </defs>
  <path fill="#fff" d="M0 0h10v10H0z"/>
  <g opacity=".5">
    <path d="M4 8h2v2H4zM8 8h2v2H8zM0 8h2v2H0zM4 4h2v2H4zM8 4h2v2H8zM0 4h2v2H0zM6 6h2v2H6zM2 6h2v2H2z"/>
  </g>
  <g mask="url(#b)">
    <path d="M0 0h10v10H0z"/>
    <path fill="#fff" d="M.5.5h9V10h-9z"/>
    <path d="M1.5 1.5h7V10h-7z"/>
  </g>
</svg>